<?xml version="1.0" encoding="UTF-8" standalone="no"?>
<svg
   width="512"
   height="512"
   viewBox="0 0 512 512"
   fill="none"
   version="1.1"
   id="svg44"
   xmlns:xlink="http://www.w3.org/1999/xlink"
   xmlns="http://www.w3.org/2000/svg"
   xmlns:svg="http://www.w3.org/2000/svg">
  <defs
     id="defs19">
    <!-- Flask stroke gradient -->
    <linearGradient
       id="gFlask"
       x1="120"
       y1="40"
       x2="420"
       y2="470"
       gradientUnits="userSpaceOnUse">
      <stop
         offset="0"
         stop-color="#36D7FF"
         id="stop1" />
      <stop
         offset="0.45"
         stop-color="#2E7BFF"
         id="stop2" />
      <stop
         offset="1"
         stop-color="#4A26C9"
         id="stop3" />
    </linearGradient>
    <!-- Inner highlight -->
    <linearGradient
       id="gHighlight"
       x1="155"
       y1="90"
       x2="360"
       y2="470"
       gradientUnits="userSpaceOnUse">
      <stop
         offset="0"
         stop-color="#A7F3FF"
         stop-opacity="0.65"
         id="stop4" />
      <stop
         offset="0.45"
         stop-color="#6DCBFF"
         stop-opacity="0.22"
         id="stop5" />
      <stop
         offset="1"
         stop-color="#6B3CFF"
         stop-opacity="0.10"
         id="stop6" />
    </linearGradient>
    <!-- Fluid gradients -->
    <linearGradient
       id="gFluidTop"
       x1="140"
       y1="300"
       x2="420"
       y2="380"
       gradientUnits="userSpaceOnUse">
      <stop
         offset="0"
         stop-color="#FF78D6"
         stop-opacity="0.95"
         id="stop7" />
      <stop
         offset="0.6"
         stop-color="#B85BFF"
         stop-opacity="0.90"
         id="stop8" />
      <stop
         offset="1"
         stop-color="#7B4BFF"
         stop-opacity="0.90"
         id="stop9" />
    </linearGradient>
    <linearGradient
       id="gFluidBottom"
       x1="120"
       y1="350"
       x2="430"
       y2="490"
       gradientUnits="userSpaceOnUse">
      <stop
         offset="0"
         stop-color="#8D4BFF"
         stop-opacity="0.95"
         id="stop10" />
      <stop
         offset="0.55"
         stop-color="#5C46FF"
         stop-opacity="0.96"
         id="stop11" />
      <stop
         offset="1"
         stop-color="#3B2BB8"
         stop-opacity="0.98"
         id="stop12" />
    </linearGradient>
    <!-- Molecule gradients -->
    <radialGradient
       id="gNode"
       cx="0.40000001"
       cy="0.34999999"
       r="0.69999999">
      <stop
         offset="0"
         stop-color="#7FF4FF"
         id="stop13" />
      <stop
         offset="0.55"
         stop-color="#2FB7FF"
         id="stop14" />
      <stop
         offset="1"
         stop-color="#2B3CCB"
         id="stop15" />
    </radialGradient>
    <radialGradient
       id="gNodeDark"
       cx="0.40000001"
       cy="0.34999999"
       r="0.75">
      <stop
         offset="0"
         stop-color="#79E7FF"
         id="stop16" />
      <stop
         offset="0.5"
         stop-color="#3A7DFF"
         id="stop17" />
      <stop
         offset="1"
         stop-color="#2A1A9A"
         id="stop18" />
    </radialGradient>
    <!-- Soft glow -->
    <filter
       id="fGlow"
       x="-0.042857143"
       y="-0.10434783"
       width="1.0857143"
       height="1.2086957">
      <feGaussianBlur
         stdDeviation="3"
         result="b"
         id="feGaussianBlur18" />
      <feColorMatrix
         in="b"
         type="matrix"
         values="1 0 0 0 0                 0 1 0 0 0                 0 0 1 0 0                 0 0 0 0.35 0"
         id="feColorMatrix18" />
      <feMerge
         id="feMerge19">
        <feMergeNode
           id="feMergeNode18" />
        <feMergeNode
           in="SourceGraphic"
           id="feMergeNode19" />
      </feMerge>
    </filter>
    <!-- Clip to inside of flask -->
    <clipPath
       id="clipInside">
      <!-- inner cavity shape -->
      <path
         d="m 215,82 c 0,-14 11,-25 25,-25 h 32 c 14,0 25,11 25,25 v 88 c 0,7 3,14 8,20 l 85,128 c 14,21 22,46 22,72 v 22 c 0,28 -23,51 -51,51 H 151 c -28,0 -51,-23 -51,-51 v -22 c 0,-26 8,-51 22,-72 l 85,-128 c 5,-6 8,-13 8,-20 z"
         id="path19" />
    </clipPath>
    <!-- Clip for fluid (still inside cavity) -->
    <linearGradient
       xlink:href="#gFlask"
       id="linearGradient44"
       gradientUnits="userSpaceOnUse"
       x1="120"
       y1="40"
       x2="420"
       y2="470"
       gradientTransform="matrix(1.0008943,0,0,0.96466029,-0.22894782,1.3277606)" />
    <linearGradient
       xlink:href="#gFlask"
       id="linearGradient45"
       gradientUnits="userSpaceOnUse"
       x1="120"
       y1="40"
       x2="420"
       y2="470" />
    <linearGradient
       xlink:href="#gFlask"
       id="linearGradient46"
       gradientUnits="userSpaceOnUse"
       x1="120"
       y1="40"
       x2="420"
       y2="470" />
    <linearGradient
       xlink:href="#gFlask"
       id="linearGradient47"
       gradientUnits="userSpaceOnUse"
       x1="120"
       y1="40"
       x2="420"
       y2="470" />
    <linearGradient
       xlink:href="#gFlask"
       id="linearGradient48"
       gradientUnits="userSpaceOnUse"
       x1="120"
       y1="40"
       x2="420"
       y2="470" />
    <linearGradient
       xlink:href="#gFlask"
       id="linearGradient49"
       gradientUnits="userSpaceOnUse"
       x1="120"
       y1="40"
       x2="420"
       y2="470" />
    <linearGradient
       xlink:href="#gFlask"
       id="linearGradient50"
       gradientUnits="userSpaceOnUse"
       x1="120"
       y1="40"
       x2="420"
       y2="470" />
    <radialGradient
       xlink:href="#gNode"
       id="radialGradient50"
       cx="252"
       cy="229"
       r="28"
       fx="252"
       fy="229"
       gradientUnits="userSpaceOnUse" />
    <radialGradient
       xlink:href="#gNodeDark"
       id="radialGradient51"
       cx="186.39999"
       cy="279.60001"
       r="27"
       fx="186.39999"
       fy="279.60001"
       gradientUnits="userSpaceOnUse" />
    <radialGradient
       xlink:href="#gNodeDark"
       id="radialGradient52"
       cx="318.39999"
       cy="279.60001"
       r="27"
       fx="318.39999"
       fy="279.60001"
       gradientUnits="userSpaceOnUse" />
    <radialGradient
       xlink:href="#gNode"
       id="radialGradient53"
       cx="251.60001"
       cy="305.39999"
       r="30.799999"
       fx="251.60001"
       fy="305.39999"
       gradientUnits="userSpaceOnUse" />
    <radialGradient
       xlink:href="#gNodeDark"
       id="radialGradient54"
       cx="204.8"
       cy="353.20001"
       r="24"
       fx="204.8"
       fy="353.20001"
       gradientUnits="userSpaceOnUse" />
    <radialGradient
       xlink:href="#gNodeDark"
       id="radialGradient55"
       cx="300.79999"
       cy="353.20001"
       r="24"
       fx="300.79999"
       fy="353.20001"
       gradientUnits="userSpaceOnUse" />
    <linearGradient
       xlink:href="#gFlask"
       id="linearGradient2"
       gradientUnits="userSpaceOnUse"
       x1="120"
       y1="40"
       x2="420"
       y2="470" />
    <radialGradient
       xlink:href="#gNode"
       id="radialGradient2"
       cx="254"
       cy="123"
       r="14"
       fx="254"
       fy="123"
       gradientUnits="userSpaceOnUse" />
    <radialGradient
       xlink:href="#gNode"
       id="radialGradient3"
       cx="252.60001"
       cy="170.89999"
       r="23.799999"
       fx="252.60001"
       fy="170.89999"
       gradientUnits="userSpaceOnUse" />
  </defs>
  <!-- Define cavity path once for reuse -->
  <path
     id="cavity"
     d="m 215,82 c 0,-14 11,-25 25,-25 h 32 c 14,0 25,11 25,25 v 88 c 0,7 3,14 8,20 l 85,128 c 14,21 22,46 22,72 v 22 c 0,28 -23,51 -51,51 H 151 c -28,0 -51,-23 -51,-51 v -22 c 0,-26 8,-51 22,-72 l 85,-128 c 5,-6 8,-13 8,-20 z"
     fill="none" />
  <!-- FLASK OUTLINE -->
  <path
     d="m 204.95439,76.571263 c 0,-19.293205 16.01431,-34.727771 36.0322,-34.727771 h 30.02682 c 20.01789,0 36.0322,15.434566 36.0322,34.727771 v 86.819427 c 0,3.85864 2.00179,9.64661 6.00536,15.43456 l 89.0796,129.26448 c 18.0161,26.04583 29.02593,56.91496 29.02593,89.71341 v 5.78796 c 0,36.65709 -31.02771,66.56156 -69.0617,66.56156 H 149.9052 c -38.03399,0 -69.061708,-29.90447 -69.061708,-66.56156 v -5.78796 c 0,-32.79845 11.009838,-63.66758 29.025938,-89.71341 l 89.0796,-129.26448 c 4.00357,-5.78795 6.00536,-11.57592 6.00536,-15.43456 z"
     stroke="url(#gFlask)"
     stroke-width="17.687"
     stroke-linejoin="round"
     id="path20"
     style="stroke:url(#linearGradient44)" />
  <!-- Neck rim -->
  <path
     d="m 205,78 c 0,-20 16,-36 36,-36 h 30 c 20,0 36,16 36,36"
     stroke="url(#gFlask)"
     stroke-width="22"
     stroke-linecap="round"
     id="path21"
     style="stroke:url(#linearGradient2)" />
  <!-- Inner highlight stroke -->
  <path
     d="m 225,92 c 0,-14 10,-25 24,-25 h 14 c 14,0 24,11 24,25 v 79 c 0,11 5,22 12,32 l 78,118 c 12,18 19,40 19,63 v 24 c 0,20 -16,36 -36,36 H 153 c -20,0 -36,-16 -36,-36 v -24 c 0,-23 7,-45 19,-63 l 78,-118 c 7,-10 11,-21 11,-32 z"
     stroke="url(#gHighlight)"
     stroke-width="10"
     stroke-linejoin="round"
     opacity="0.9"
     id="path22"
     style="stroke:url(#gHighlight)" />
  <!-- Bubbles in neck -->
  <circle
     cx="256"
     cy="126"
     r="10"
     fill="url(#gNode)"
     opacity="0.95"
     id="circle22"
     style="fill:url(#radialGradient2)" />
  <circle
     cx="256"
     cy="176"
     r="17"
     fill="url(#gNode)"
     opacity="0.95"
     id="circle23"
     style="fill:url(#radialGradient3)" />
  <!-- CONTENTS (clipped inside cavity) -->
  <g
     clip-path="url(#clipInside)"
     id="g44"
     transform="matrix(1.0684599,0,0,0.97625694,-16.897531,10.364818)">
    <!-- Fluid: top wave -->
    <path
       id="path23"
       style="fill:url(#gFluidTop)"
       d="m 170.23907,313.50052 c -28.74626,-1.49814 -57.24231,3.50259 -84.23887,20.50041 v 185.9982 H 425.99929 V 329.99968 c -7.76563,4.31424 -15.65541,7.80236 -23.63946,10.5573 0.0487,0.0549 0.098,0.10915 0.14624,0.16406 0.7457,0.85413 1.14006,1.96668 1.51722,3.05295 0.29778,0.84239 0.60714,1.68007 0.89937,2.52479 0.28597,0.83865 0.56515,1.68106 0.83356,2.52679 0.1828,0.58625 0.36972,1.17139 0.52097,1.76855 0.0654,0.23173 0.1327,0.46367 0.1956,0.69622 0.0634,0.23423 0.0838,0.44352 0.0713,0.6242 0.4623,1.27757 0.90028,2.56505 1.34357,3.8512 0.44972,1.27475 0.94779,2.53019 1.36367,3.8192 0.24062,0.7458 0.97776,3.22481 1.15894,3.8292 1.20108,3.99303 2.44831,7.96915 3.67242,11.95374 0.51296,1.66226 0.26708,0.86419 0.73484,2.39475 0.41035,1.34266 -0.64465,1.89534 -1.20829,0.94029 0.41801,1.59247 0.83209,3.18565 1.23937,4.7815 0.39146,1.53386 -1.02342,1.96801 -1.41486,0.43413 -0.5084,-1.99218 -1.02809,-3.98053 -1.55195,-5.96787 0.0381,0.50212 0.0759,1.00392 0.10967,1.50648 0.0536,0.78197 0.10698,1.56595 0.0932,2.35073 0.13294,0.89629 0.24565,1.79512 0.32904,2.69885 0.0417,0.44562 0.0661,0.89283 0.0804,1.34042 0.006,0.16195 0.008,0.32411 0.007,0.48615 -0.006,0.95865 -0.2664,1.31615 -0.45882,1.07633 -0.009,0.28851 -0.0198,0.5779 -0.0274,0.86628 0.0254,0.15979 0.0512,0.31967 0.075,0.48015 0.0457,0.28623 0.0861,0.5734 0.11516,0.86227 0.0226,0.23465 0.0328,0.47045 0.0384,0.70622 7.3e-4,0.21149 -0.0138,0.42174 -0.0329,0.63219 0.0257,0.27371 0.0505,0.5484 0.075,0.82226 0.0504,0.57241 0.0953,1.14532 0.1371,1.71854 0.0395,0.54124 -0.19449,0.56148 -0.23398,0.02 -0.0328,-0.44955 -0.0668,-0.89929 -0.1042,-1.34843 -0.0235,0.23047 -0.0448,0.46038 -0.0585,0.69222 -0.0151,0.27137 -0.0219,0.54447 -0.0256,0.81626 -0.007,0.35878 -0.003,0.71766 0.004,1.07633 0.003,0.34429 0.0326,0.68716 0.0548,1.03032 0.0158,0.25363 0.0236,0.50669 0.0402,0.76024 0.0166,0.22313 0.0237,0.44648 0.0292,0.67021 0.006,0.26945 0.003,0.53877 0.004,0.80826 0.005,0.35019 0.0142,0.70227 0.0256,1.05232 0.011,0.27252 0.0122,0.54523 0.0439,0.81626 0.0167,0.14295 0.0356,0.22216 0.0621,0.36411 0.0349,0.1898 0.0732,0.37719 0.11151,0.56618 0.20229,0.99809 -0.016,1.40233 -0.2742,1.11835 0.0282,0.27504 0.0403,0.39165 0.0676,0.71022 0.0453,0.52828 0.077,1.05704 0.10785,1.5865 0.006,0.10059 0.0109,0.20151 0.0164,0.30209 0.004,0.0718 0.0565,0.16414 0.011,0.21607 l -0.004,0.004 c 0.002,0.0143 0.0116,0.035 0.0128,0.048 v 0.002 0.002 0.002 0.002 l -0.002,0.002 -0.002,0.002 h -0.002 -0.002 c -0.0201,4.8e-4 -0.0412,0.002 -0.0621,0.002 -0.0986,0.10237 -0.15368,0.12738 -0.18463,0.11404 h -0.002 -0.005 v -0.002 h -0.002 -0.002 v -0.002 -0.002 h -0.002 v -0.002 c -0.006,-0.007 -0.0126,-0.0179 -0.0164,-0.03 0.0166,0.21419 0.0321,0.42473 0.053,0.70022 0.0514,0.70393 0.026,0.36764 0.0713,1.00831 0.0211,0.29783 -0.0407,0.43856 -0.10603,0.41413 0.006,0.0723 0.0122,0.14385 0.0183,0.21607 0.002,0.0292 0.002,0.058 0.004,0.086 0.51126,-0.27043 0.59867,-0.0195 0.0841,0.3041 -0.0185,0.0117 -0.037,0.0231 -0.0548,0.036 0.0396,0.47406 0.0672,0.80782 0.10967,1.38443 0.0473,0.64258 0.0647,0.91085 0.10603,1.53849 0.0437,0.6619 -0.24156,0.6839 -0.28517,0.022 -0.0413,-0.6262 -0.057,-0.8934 -0.10419,-1.53448 -0.0366,-0.49705 -0.0616,-0.81248 -0.0932,-1.19437 -0.0542,0.0412 -0.11027,0.0797 -0.16635,0.11804 -0.0545,0.0424 -0.11653,0.0714 -0.17914,0.096 -0.0711,0.0244 -0.14644,0.0467 -0.2157,-0.008 -0.0279,-0.022 -0.0402,-0.0596 -0.0603,-0.09 -3e-4,-0.003 -10e-4,-0.007 -0.002,-0.01 -0.12876,0.52619 -0.37171,0.43274 -0.25592,-0.17605 0.003,-0.0188 0.006,-0.0375 0.011,-0.056 0.01,-0.0403 0.0135,-0.083 0.0201,-0.12404 0.009,-0.0644 0.0145,-0.12943 0.0219,-0.19406 0.006,-0.0892 0.01,-0.17897 0.0183,-0.26808 0.008,-0.1153 0.0137,-0.23049 0.0165,-0.34611 0.004,-0.14443 0.004,-0.28971 0.007,-0.43414 0.004,-0.13792 0.006,-0.27616 0.007,-0.41413 0.002,-0.16812 0.005,-0.33601 0.005,-0.50416 -10e-4,-0.20128 -0.005,-0.40292 0,-0.60418 0.001,-0.0234 0.002,-0.0467 0.004,-0.07 -0.002,-0.0174 -0.003,-0.0355 -0.005,-0.054 -0.007,-0.0636 -0.009,-0.12804 -0.007,-0.19206 v -0.26809 -0.3181 -0.3161 -0.31209 c 10e-6,-0.10582 -3e-5,-0.21029 0,-0.3161 3e-5,-0.11451 -1.6e-4,-0.2296 0,-0.34411 0,-0.1305 -9.4e-4,-0.26162 0,-0.39212 0.002,-0.12042 6.6e-4,-0.23975 0.004,-0.36012 0.004,-0.13856 0.008,-0.27748 0.009,-0.41613 0.004,-0.22367 0.01,-0.44669 0.0183,-0.67021 0.005,-0.12487 0.0126,-0.24913 0.0201,-0.37411 -0.002,-0.025 -0.004,-0.0521 -0.004,-0.08 -0.0226,-0.84884 -0.0428,-1.69957 -0.0475,-2.54879 -0.001,-0.24256 -0.006,-0.70046 -0.002,-0.9563 7.9e-4,-0.055 0.002,-0.11073 0.004,-0.16606 -0.0108,-0.0611 -0.0172,-0.13744 -0.0165,-0.23007 0.002,-0.24472 0.003,-0.48951 0.005,-0.73423 0.005,-0.60993 0.0117,-1.22101 -0.0128,-1.83057 -0.0125,-0.25451 -0.0127,-0.2844 -0.0292,-0.53217 -0.0185,-0.27742 -0.0447,-0.5529 -0.064,-0.83026 -0.0182,-0.30935 -0.0267,-0.62031 -0.0183,-0.93029 0.003,-0.0791 10e-4,-0.15894 0.005,-0.23807 -0.0144,-0.15756 -0.0273,-0.31413 -0.042,-0.47215 -0.033,-0.36033 -0.0693,-0.7219 -0.075,-1.08434 -0.002,-0.10211 0.006,-0.18421 0.0183,-0.24808 -0.004,-0.0562 -0.009,-0.11579 -0.0128,-0.18806 -3.3e-4,-0.006 -0.002,-0.0122 -0.002,-0.018 v -0.002 -0.002 -0.002 -0.002 c -0.0317,-0.39771 -0.0688,-0.85588 -0.0896,-1.13636 -0.0189,-0.25455 -0.0367,-0.5096 -0.0548,-0.76424 -0.0232,-0.37486 -0.0533,-0.75192 -0.053,-1.12835 -0.0462,-0.48094 -0.006,-0.0597 -0.0731,-0.75624 -0.01,-0.0983 -0.019,-0.19565 -0.0274,-0.29409 -0.003,-0.0312 -0.003,-0.0627 -0.004,-0.094 -0.003,-0.0611 -0.003,-0.11464 0,-0.16205 -0.0419,-0.48666 -0.0852,-0.97414 -0.12796,-1.46046 -0.0447,-0.53088 -0.094,-1.06121 -0.13527,-1.5925 -0.0169,-0.0943 -0.0353,-0.18958 -0.0512,-0.28408 -0.03,-0.18122 -0.0622,-0.36399 -0.0731,-0.54818 -0.0106,-0.155 -0.0199,-0.30894 -0.0274,-0.46414 -9.6e-4,-0.026 -0.002,-0.0519 -0.005,-0.078 -0.0239,-0.10393 -0.0447,-0.2093 -0.0548,-0.31609 -0.008,-0.094 -0.0145,-0.18799 -0.0165,-0.28209 -0.0161,-0.0712 -0.0321,-0.14171 -0.0457,-0.21407 -0.0149,-0.0788 -0.0316,-0.15761 -0.0475,-0.23607 -0.0179,-0.0777 -0.0352,-0.15669 -0.0457,-0.23608 -0.01,-0.0775 -0.0218,-0.15402 -0.0274,-0.23207 -0.007,-0.0969 -0.0128,-0.19278 -0.011,-0.29009 -2e-4,-0.0218 2.7e-4,-0.0441 0,-0.066 -10e-4,-0.007 -0.002,-0.0132 -0.004,-0.02 -0.0233,-0.12039 -0.0411,-0.24203 -0.0658,-0.36211 -0.0228,-0.11203 -0.0476,-0.22264 -0.064,-0.33611 -0.0144,-0.0957 -0.0306,-0.19252 -0.0457,-0.28809 -0.0134,-0.0852 -0.0209,-0.15845 -0.0201,-0.21806 -0.004,-0.0289 -0.007,-0.0571 -0.011,-0.086 -0.0279,-0.22328 -0.0682,-0.44505 -0.0969,-0.66821 -0.0281,-0.22282 -0.0624,-0.44498 -0.0877,-0.66821 -0.0211,-0.18692 -0.0247,-0.37373 -0.0494,-0.56018 -0.0268,-0.21444 -0.0475,-0.43009 -0.0768,-0.6442 -0.0429,-0.25613 -0.0813,-0.51378 -0.12248,-0.77024 -0.005,-0.032 -0.0109,-0.0641 -0.0165,-0.096 -0.0381,-0.22971 -0.0556,-0.42743 -0.0567,-0.59218 -0.0101,-0.0715 -0.0204,-0.14274 -0.0329,-0.21407 -0.0335,-0.19905 -0.0804,-0.39933 -0.0823,-0.60219 0.0112,-0.0726 0.0185,-0.14936 0.042,-0.21607 -0.0985,-0.41207 -0.19442,-0.82463 -0.28699,-1.23838 -0.0735,-0.32811 -0.16368,-0.65136 -0.22667,-0.98231 -0.0554,-0.27803 -0.11634,-0.55515 -0.17549,-0.83226 -0.0488,-0.23342 -0.0937,-0.46759 -0.12796,-0.70422 -0.036,-0.20471 -0.0676,-0.41012 -0.12247,-0.61019 -0.0813,-0.31589 -0.16065,-0.6316 -0.23215,-0.9503 -0.10006,-0.48326 -0.18207,-0.97161 -0.25592,-1.46046 -0.0245,-0.18895 -0.0481,-0.37842 -0.0658,-0.56817 -0.0665,-0.23733 -0.13105,-0.47519 -0.19194,-0.71423 -0.0629,-0.26181 -0.13233,-0.52339 -0.17548,-0.79025 -0.0362,-0.20625 -0.0715,-0.41318 -0.0914,-0.62219 -0.001,-0.0107 -0.005,-0.022 -0.005,-0.032 -0.0479,-0.19899 -0.0933,-0.39752 -0.13527,-0.59819 -0.076,-0.36485 -0.14812,-0.72981 -0.2157,-1.09634 -0.009,-0.0306 -0.018,-0.0614 -0.0274,-0.092 -0.10893,-0.35254 -0.21497,-0.70767 -0.32355,-1.06033 -0.13342,-0.43367 -0.27,-0.86452 -0.3857,-1.30441 -0.0807,-0.31051 -0.15722,-0.62352 -0.22302,-0.93829 -0.045,-0.20124 -0.0917,-0.40203 -0.1243,-0.60619 -0.049,-0.15574 -0.0968,-0.31214 -0.14076,-0.47015 -0.0514,-0.18393 -0.0982,-0.36894 -0.15172,-0.55217 -0.0601,-0.2189 -0.1266,-0.43583 -0.18828,-0.65421 -0.103,-0.34388 -0.2048,-0.6895 -0.31076,-1.03232 -0.13033,-0.43554 -0.25339,-0.87257 -0.37108,-1.31241 -0.002,-0.009 -0.002,-0.0172 -0.004,-0.026 -0.0466,-0.135 -0.092,-0.27117 -0.13345,-0.40813 -0.0149,-0.0489 -0.0186,-0.0916 -0.0146,-0.12804 -0.0229,-0.0825 -0.0466,-0.16562 -0.0695,-0.24807 -0.0729,-0.19708 -0.14651,-0.39404 -0.22119,-0.59019 -0.14426,-0.39119 -0.28647,-0.78303 -0.40581,-1.18437 -0.11439,-0.36585 -0.2212,-0.73478 -0.33087,-1.10234 -0.103,-0.34042 -0.21391,-0.67714 -0.32538,-1.01432 -0.12921,-0.39539 -0.26037,-0.78964 -0.39118,-1.18437 -0.12496,-0.39319 -0.25084,-0.78734 -0.34732,-1.19037 -0.0333,-0.14791 -0.0661,-0.29652 -0.0932,-0.44614 -0.17305,-0.46651 -0.34306,-0.93442 -0.50818,-1.40444 -0.32773,-0.94618 -0.62751,-1.90419 -0.91216,-2.8669 -0.0258,-0.0871 -0.0459,-0.17115 -0.0603,-0.25208 -47.05779,15.61717 -97.31053,6.11327 -144.69937,-9.11885 -27.99648,-8.99888 -56.9932,-16.99835 -85.73965,-18.49979 z m 238.84956,59.20052 c 1.2e-4,0.006 0.002,0.0234 0.007,0.034 l 0.002,0.002 c -0.002,-0.009 -0.005,-0.0201 -0.009,-0.036 z m 2.25756,32.33012 c -1.6e-4,0.0456 0.002,0.0904 0.002,0.13604 0.005,-10e-4 0.01,-10e-4 0.0146,-0.002 h 0.002 c -0.006,-0.0445 -0.0129,-0.0892 -0.0183,-0.13404 z m 0.43688,2.45877 v 0.002 h 0.002 v -0.002 z m 0.004,0.002 v 0.002 h 0.002 v 0.002 h 0.002 0.002 v -0.002 l -0.002,-0.002 h -0.002 z m -0.23032,0.18406 c -0.003,0.0108 -0.006,0.0213 -0.009,0.032 0.007,-0.005 0.0145,-0.0109 0.0219,-0.016 -0.002,-0.003 -0.006,-0.008 -0.007,-0.01 l -0.002,-0.002 -0.002,-0.002 v -0.002 z" />
    <!-- Fluid: bottom wave -->
    <path
       id="path24"
       style="fill:url(#gFluidBottom)"
       d="m 155.25694,366.179 c -22.10156,0.0703 -45.25674,4.57095 -69.25674,15.82095 V 519.99913 H 425.99929 V 399.99958 c -4.62191,2.92721 -9.25434,5.48776 -13.89266,7.70842 0.0376,0.45098 0.0631,0.77987 0.10419,1.33841 0.0473,0.64258 0.0647,0.91085 0.10603,1.53849 0.0437,0.6619 -0.24156,0.6839 -0.28517,0.022 -0.0413,-0.6262 -0.057,-0.8934 -0.10419,-1.53448 -0.0366,-0.49701 -0.0616,-0.8125 -0.0932,-1.19437 -0.0543,0.0412 -0.11021,0.0796 -0.16635,0.11804 -0.0545,0.0424 -0.11653,0.0714 -0.17914,0.096 -0.0661,0.0227 -0.13589,0.0433 -0.20108,0.002 -0.0439,0.0206 -0.0878,0.0415 -0.13161,0.062 -0.078,0.19154 -0.16967,0.21896 -0.21022,0.098 -55.19666,25.75278 -110.95093,3.90895 -154.9452,-16.25509 -30,-13.75 -63.90778,-25.93727 -100.74372,-25.82008 z" />
    <!-- Soft inner glow spots -->
    <g
       opacity="0.35"
       filter="url(#fGlow)"
       id="g28">
      <circle
         cx="170"
         cy="395"
         r="18"
         fill="#b9f7ff"
         id="circle24" />
      <circle
         cx="220"
         cy="432"
         r="12"
         fill="#d4c9ff"
         id="circle25" />
      <circle
         cx="300"
         cy="430"
         r="16"
         fill="#b9f7ff"
         id="circle26" />
      <circle
         cx="350"
         cy="405"
         r="14"
         fill="#e7b6ff"
         id="circle27" />
      <circle
         cx="140"
         cy="430"
         r="10"
         fill="#fad0ff"
         id="circle28" />
    </g>
    <!-- Molecules network (above fluid) -->
    <g
       stroke="url(#gFlask)"
       stroke-width="10"
       stroke-linecap="round"
       stroke-linejoin="round"
       opacity="0.95"
       id="g32"
       style="stroke:url(#linearGradient50)">
      <!-- connections -->
      <path
         d="m 256,235 -66,50"
         id="path28"
         style="stroke:url(#linearGradient45)" />
      <path
         d="m 256,235 66,50"
         id="path29"
         style="stroke:url(#linearGradient46)" />
      <path
         d="m 256,235 v 77"
         id="path30"
         style="stroke:url(#linearGradient47)" />
      <path
         d="m 256,312 -48,46"
         id="path31"
         style="stroke:url(#linearGradient48)" />
      <path
         d="m 256,312 48,46"
         id="path32"
         style="stroke:url(#linearGradient49)" />
    </g>
    <!-- nodes -->
    <g
       filter="url(#fGlow)"
       id="g37">
      <circle
         cx="256"
         cy="235"
         r="20"
         fill="url(#gNode)"
         id="circle32"
         style="fill:url(#radialGradient50)" />
      <circle
         cx="190"
         cy="285"
         r="18"
         fill="url(#gNodeDark)"
         id="circle33"
         style="fill:url(#radialGradient51)" />
      <circle
         cx="322"
         cy="285"
         r="18"
         fill="url(#gNodeDark)"
         id="circle34"
         style="fill:url(#radialGradient52)" />
      <circle
         cx="256"
         cy="312"
         r="22"
         fill="url(#gNode)"
         id="circle35"
         style="fill:url(#radialGradient53)" />
      <circle
         cx="208"
         cy="358"
         r="16"
         fill="url(#gNodeDark)"
         id="circle36"
         style="fill:url(#radialGradient54)" />
      <circle
         cx="304"
         cy="358"
         r="16"
         fill="url(#gNodeDark)"
         id="circle37"
         style="fill:url(#radialGradient55)" />
    </g>
    <!-- Extra tiny bubbles -->
    <g
       opacity="0.35"
       id="g43">
      <circle
         cx="120"
         cy="410"
         r="10"
         fill="#ffffff"
         id="circle38" />
      <circle
         cx="165"
         cy="455"
         r="8"
         fill="#ffffff"
         id="circle39" />
      <circle
         cx="240"
         cy="462"
         r="11"
         fill="#ffffff"
         id="circle40" />
      <circle
         cx="320"
         cy="462"
         r="9"
         fill="#ffffff"
         id="circle41" />
      <circle
         cx="392"
         cy="438"
         r="12"
         fill="#ffffff"
         id="circle42" />
      <path
         id="circle43"
         d="m 409.99896,386.99952 a 8,8 0 0 0 -7.99924,8.0005 8,8 0 0 0 8.00107,8.0005 8,8 0 0 0 1.05658,-0.07 c -4e-5,-0.0858 -1.2e-4,-0.1724 0,-0.25808 0,-0.1305 -9.4e-4,-0.26162 0,-0.39212 0.002,-0.12042 0.004,-0.23975 0.007,-0.36012 0.004,-0.13856 0.008,-0.27748 0.009,-0.41613 0.004,-0.22367 0.01,-0.44669 0.0183,-0.67021 0.005,-0.12382 0.0109,-0.24818 0.0183,-0.37211 -0.002,-0.0259 -0.003,-0.053 -0.004,-0.082 -0.0226,-0.84884 -0.0392,-1.69957 -0.0439,-2.54879 -0.001,-0.24256 -0.008,-0.70046 -0.004,-0.9563 7.7e-4,-0.0537 0.003,-0.10809 0.005,-0.16205 -0.0112,-0.0618 -0.0172,-0.13942 -0.0165,-0.23408 0.002,-0.24472 0.003,-0.48951 0.005,-0.73423 0.005,-0.60993 0.0117,-1.22101 -0.0128,-1.83057 -0.0125,-0.25451 -0.0127,-0.2844 -0.0292,-0.53217 -0.0185,-0.27742 -0.0447,-0.5529 -0.064,-0.83026 -0.0182,-0.30935 -0.0267,-0.62031 -0.0183,-0.93029 0.003,-0.0786 0.003,-0.15743 0.007,-0.23607 -0.0145,-0.15807 -0.0273,-0.31562 -0.042,-0.47415 -0.033,-0.36033 -0.0693,-0.7219 -0.075,-1.08434 -0.002,-0.0998 0.005,-0.1808 0.0165,-0.24408 -0.004,-0.0518 -0.007,-0.10594 -0.011,-0.17005 -0.0327,-0.40887 -0.0697,-0.89212 -0.0914,-1.18437 -0.0189,-0.25455 -0.0367,-0.5096 -0.0548,-0.76424 -0.009,-0.14564 -0.0186,-0.29206 -0.0274,-0.43814 a 8,8 0 0 0 -0.65259,-0.026 z m 2.32885,0.3481 c -0.0878,0.15624 -0.19391,0.17724 -0.28516,0.062 -0.009,0.28721 -0.018,0.57519 -0.0256,0.86227 0.0257,0.16132 0.0491,0.32214 0.0731,0.48416 0.0457,0.28623 0.0861,0.5734 0.11516,0.86227 0.0226,0.23465 0.0328,0.47045 0.0384,0.70622 7.3e-4,0.21303 -0.0136,0.42621 -0.0329,0.6382 0.0255,0.27217 0.0505,0.54393 0.075,0.81625 0.0504,0.57241 0.0953,1.14532 0.1371,1.71854 0.0395,0.54124 -0.19449,0.56142 -0.23398,0.02 -0.0327,-0.44802 -0.067,-0.89682 -0.1042,-1.34443 -0.0233,0.22893 -0.0449,0.45792 -0.0585,0.68822 -0.0151,0.27137 -0.0219,0.54447 -0.0256,0.81626 -0.007,0.35878 10e-4,0.71766 0.009,1.07633 0.003,0.34429 0.0326,0.68716 0.0548,1.03032 0.0158,0.25363 0.0236,0.50669 0.0402,0.76024 0.0166,0.22313 0.0236,0.44648 0.0292,0.67021 0.006,0.26945 0.006,0.53877 0.007,0.80826 0.005,0.35019 0.0142,0.70227 0.0256,1.05232 0.011,0.27252 0.0122,0.54523 0.0439,0.81626 0.0167,0.14295 0.0356,0.22216 0.0621,0.36411 0.0349,0.1898 0.0732,0.37719 0.11151,0.56618 0.20472,1.01011 -0.0211,1.41052 -0.28334,1.10635 0.0289,0.28266 0.04,0.3996 0.0676,0.72222 10e-4,0.0166 0.002,0.0335 0.004,0.05 a 8,8 0 0 0 5.82761,-7.70041 8,8 0 0 0 -5.67223,-7.6524 z" />
    </g>
  </g>
</svg>
